<?xml version="1.0" encoding="UTF-8" standalone="no"?>
<!-- Generator: Adobe Illustrator 25.4.1, SVG Export Plug-In . SVG Version: 6.00 Build 0)  -->

<svg
   version="1.1"
   id="Layer_1"
   x="0px"
   y="0px"
   viewBox="0 0 600 600"
   style="enable-background:new 0 0 600 600;"
   xml:space="preserve"
   sodipodi:docname="logo-dao-brussels-blue-original.svg"
   inkscape:export-filename="logo-dao-brussels-blue-600x600.png"
   inkscape:export-xdpi="96"
   inkscape:export-ydpi="96"
   inkscape:version="1.2.2 (b0a84865, 2022-12-01)"
   xmlns:inkscape="http://www.inkscape.org/namespaces/inkscape"
   xmlns:sodipodi="http://sodipodi.sourceforge.net/DTD/sodipodi-0.dtd"
   xmlns="http://www.w3.org/2000/svg"
   xmlns:svg="http://www.w3.org/2000/svg"><defs
   id="defs211" /><sodipodi:namedview
   id="namedview209"
   pagecolor="#ffffff"
   bordercolor="#000000"
   borderopacity="0.25"
   inkscape:showpageshadow="2"
   inkscape:pageopacity="0.0"
   inkscape:pagecheckerboard="0"
   inkscape:deskcolor="#d1d1d1"
   showgrid="false"
   inkscape:zoom="0.39333333"
   inkscape:cx="66.101695"
   inkscape:cy="301.27119"
   inkscape:window-width="3008"
   inkscape:window-height="1639"
   inkscape:window-x="0"
   inkscape:window-y="25"
   inkscape:window-maximized="0"
   inkscape:current-layer="Layer_1" />
<style
   type="text/css"
   id="style2">
	.st0{fill:#297BAE;}
	.st1{fill:#5AAFDF;}
	.st2{fill:url(#SVGID_1_);}
	.st3{fill:#1B96CF;}
	.st4{fill:#1A65A3;}
	.st5{fill:url(#SVGID_00000162339776839076968110000010339379684442839171_);}
	.st6{fill:url(#SVGID_00000167363922337205522660000011028882163601476751_);}
	.st7{fill:url(#SVGID_00000139285688170924310720000006086124992302023600_);}
	.st8{fill:url(#SVGID_00000017474202015847215930000006034702883185048468_);}
	.st9{fill:url(#SVGID_00000163772611464672147530000014953913871290556851_);}
	.st10{fill:url(#SVGID_00000016782257604482242860000011993734645780000145_);}
	.st11{fill:url(#SVGID_00000014628595105849499880000004027531985476261037_);}
	.st12{fill:url(#SVGID_00000163793877344092740880000014129728260665079947_);}
	.st13{fill:url(#SVGID_00000160913445963469297740000014244350252387666564_);}
	.st14{fill:url(#SVGID_00000183223798527021379680000010320859901076142737_);}
	.st15{fill:url(#SVGID_00000143609349875219882940000004374132123856449424_);}
	.st16{fill:url(#SVGID_00000140005476032968653170000000551801937306376631_);}
	.st17{fill:url(#SVGID_00000003822252745209737930000004990560900817394623_);}
	.st18{fill:#34348C;}
</style>
<g
   id="g206">
	<g
   id="g172">
		<path
   class="st0"
   d="M302.9,385.7c0,0-4.5-32.2-1.1-50.4l-10.5-0.4c0,0,5.6,39.4-5.1,47.9L302.9,385.7z"
   id="path4" />
		<path
   class="st1"
   d="M406.8,237.2c-19.5,9.9-41.4,15.9-81.8,75h-10.3l-3-15.7c0,0,5.1,11.4,43.4-31.8s38.4-43.2,38.4-43.2    l12.8-3.8l6.1,9.7L406.8,237.2z"
   id="path6" />
		<path
   class="st0"
   d="M189,236.9c19.1,9.7,40.5,15.6,80.1,73.7h10.1l2.9-15.5c0,0-4.9,11.2-42.5-31.3s-37.6-42.4-37.6-42.4    l-12.5-3.7l-6,9.5L189,236.9z"
   id="path8" />
		<path
   class="st1"
   d="M288.6,283.9l-25.9,25.9c-3.8,3.8-3.8,9.8,0,13.6l25.9,25.9c3.8,3.8,9.8,3.8,13.6,0l25.9-25.9    c3.8-3.8,3.8-9.8,0-13.6l-25.9-25.9C298.4,280.1,292.3,280.1,288.6,283.9z"
   id="path10" />
		<linearGradient
   id="SVGID_1_"
   gradientUnits="userSpaceOnUse"
   x1="261.1043"
   y1="316.5095"
   x2="295.3503"
   y2="316.5095">
			<stop
   offset="0.3155"
   style="stop-color:#297BAE"
   id="stop12" />
			<stop
   offset="0.4914"
   style="stop-color:#2F82B4"
   id="stop14" />
			<stop
   offset="0.7455"
   style="stop-color:#4295C7"
   id="stop16" />
			<stop
   offset="1"
   style="stop-color:#5AAFDF"
   id="stop18" />
		</linearGradient>
		<path
   class="st2"
   d="M295.4,282.3v68.5c-3.2,0-6.4-1.2-8.9-3.7l-21.7-21.7c-4.9-4.9-4.9-12.8,0-17.7l21.7-21.7    C288.9,283.5,292.1,282.3,295.4,282.3z"
   id="path21" />
		<path
   class="st0"
   d="M303.3,231.6c0,0-4.9-20.3-1.8-31.8l-10.5-0.4c0,0,6.1,24.9-4.5,30.1L303.3,231.6z"
   id="path23" />
		<path
   class="st3"
   d="M407.9,224.2c-20.9,2.7-42.2-1.7-101.2,60l-8.9-6.2l3.9-24.6c0,0-0.3,19.6,50.5-20.2s50.7-39.8,50.7-39.8    l12.6,2.2l1.3,17.7L407.9,224.2z"
   id="path25" />
		<path
   class="st4"
   d="M184.2,224.2c20.9,2.7,42.2-1.7,101.2,60l8.9-6.2l-3.9-24.6c0,0,0.3,19.6-50.5-20.2s-50.7-39.8-50.7-39.8    l-12.6,2.2l-1.3,17.7L184.2,224.2z"
   id="path27" />
		<path
   class="st3"
   d="M417.3,293.4c-22.1,0.2-45,6.9-104.7-40.8l-9.8,6.7l2.9,21.5c0,0,0.7-17.5,52.7,11.7c52,29.1,52,29.1,52,29.1    l13.5-3.6l2.3-16L417.3,293.4z"
   id="path29" />
		<path
   class="st4"
   d="M183,292.7c21.7,0.2,44.2,6.8,102.7-39.9l9.6,6.5l-2.8,21.1c0,0-0.7-17.1-51.7,11.4s-51,28.5-51,28.5    l-13.2-3.5l-2.3-15.7L183,292.7z"
   id="path31" />
		<path
   class="st4"
   d="M168.6,318.4c27.5,13.5,51.4,11.8,108.5,82.4l21.5,11.3l4.2-19.7c0,0-7.1,14.2-61.3-39.7s-54.2-54-54.2-54    l-18.1-4.7l-8.7,12.1L168.6,318.4z"
   id="path33" />
		<path
   class="st3"
   d="M429.2,318.4c-29.1,13.5-54.4,11.8-114.9,82.4l-22.8,11.3l-4.4-19.7c0,0,7.5,14.2,64.9-39.7s57.3-54,57.3-54    l19.1-4.7l9.2,12.1L429.2,318.4z"
   id="path35" />
		<path
   class="st3"
   d="M419.4,277.1c-24.1-14.2-51.1-22.7-100.9-107.2h-12.8l-3.7,22.5c0,0,6.2-16.3,53.6,45.5s47.3,61.7,47.3,61.7    l15.8,5.4l7.6-13.8L419.4,277.1z"
   id="path37" />
		<path
   class="st4"
   d="M179.1,277.1c22.8-14.2,48.4-22.7,95.7-107.2h12.1l3.5,22.5c0,0-5.9-16.3-50.8,45.5s-44.9,61.7-44.9,61.7    l-15,5.4l-7.2-13.8L179.1,277.1z"
   id="path39" />
		<path
   class="st3"
   d="M423.4,199c-24.1-10.9-51.1-17.4-100.9-82.1h-12.8l-3.7,17.2c0,0,6.2-12.5,53.6,34.8s47.3,47.3,47.3,47.3    l15.8,4.1l7.6-10.6L423.4,199z"
   id="path41" />
		<path
   class="st4"
   d="M173,199c24.1-10.9,51.1-17.4,100.9-82.1h12.8l3.7,17.2c0,0-6.2-12.5-53.6,34.8s-47.3,47.3-47.3,47.3    l-15.8,4.1l-7.6-10.6L173,199z"
   id="path43" />
		
			<linearGradient
   id="SVGID_00000110453312790595291590000008716526760142607755_"
   gradientUnits="userSpaceOnUse"
   x1="132.756"
   y1="303.6468"
   x2="203.6866"
   y2="303.6468">
			<stop
   offset="0.5146"
   style="stop-color:#34348C"
   id="stop45" />
			<stop
   offset="0.7183"
   style="stop-color:#23549B"
   id="stop47" />
			<stop
   offset="0.8616"
   style="stop-color:#1A65A3"
   id="stop49" />
		</linearGradient>
		<path
   style="fill:url(#SVGID_00000110453312790595291590000008716526760142607755_);"
   d="M161.4,271l-25.9,25.9    c-3.8,3.8-3.8,9.8,0,13.6l25.9,25.9c3.8,3.8,9.8,3.8,13.6,0l25.9-25.9c3.8-3.8,3.8-9.8,0-13.6L175,271    C171.3,267.2,165.2,267.2,161.4,271z"
   id="path52" />
		
			<linearGradient
   id="SVGID_00000065775884258988083810000017560649419572252049_"
   gradientUnits="userSpaceOnUse"
   x1="133.9753"
   y1="303.6468"
   x2="168.2213"
   y2="303.6468">
			<stop
   offset="0"
   style="stop-color:#1A0056"
   id="stop54" />
			<stop
   offset="0.7809"
   style="stop-color:#34348C"
   id="stop56" />
		</linearGradient>
		<path
   style="fill:url(#SVGID_00000065775884258988083810000017560649419572252049_);"
   d="M168.2,269.4v68.5    c-3.2,0-6.4-1.2-8.9-3.7l-21.7-21.7c-4.9-4.9-4.9-12.8,0-17.7l21.7-21.7C161.8,270.6,165,269.4,168.2,269.4z"
   id="path59" />
		
			<linearGradient
   id="SVGID_00000072243521451651371640000014852200268976633265_"
   gradientUnits="userSpaceOnUse"
   x1="141.2453"
   y1="217.248"
   x2="212.176"
   y2="217.248">
			<stop
   offset="0.5029"
   style="stop-color:#34348C"
   id="stop61" />
			<stop
   offset="0.6757"
   style="stop-color:#23549B"
   id="stop63" />
			<stop
   offset="0.7972"
   style="stop-color:#1A65A3"
   id="stop65" />
		</linearGradient>
		<path
   style="fill:url(#SVGID_00000072243521451651371640000014852200268976633265_);"
   d="M169.9,184.6l-25.9,25.9    c-3.8,3.8-3.8,9.8,0,13.6l25.9,25.9c3.8,3.8,9.8,3.8,13.6,0l25.9-25.9c3.8-3.8,3.8-9.8,0-13.6l-25.9-25.9    C179.8,180.8,173.7,180.8,169.9,184.6z"
   id="path68" />
		
			<linearGradient
   id="SVGID_00000181808839883107282460000012278313269232499636_"
   gradientUnits="userSpaceOnUse"
   x1="142.4647"
   y1="217.248"
   x2="176.7107"
   y2="217.248">
			<stop
   offset="0"
   style="stop-color:#1A0056"
   id="stop70" />
			<stop
   offset="0.7809"
   style="stop-color:#34348C"
   id="stop72" />
		</linearGradient>
		<path
   style="fill:url(#SVGID_00000181808839883107282460000012278313269232499636_);"
   d="M176.7,183v68.5c-3.2,0-6.4-1.2-8.9-3.7    l-21.7-21.7c-4.9-4.9-4.9-12.8,0-17.7l21.7-21.7C170.3,184.2,173.5,183,176.7,183z"
   id="path75" />
		
			<linearGradient
   id="SVGID_00000075153078088734757290000004046133580848484535_"
   gradientUnits="userSpaceOnUse"
   x1="260.5587"
   y1="255.4503"
   x2="331.4893"
   y2="255.4503">
			<stop
   offset="0.4438"
   style="stop-color:#34348C"
   id="stop77" />
			<stop
   offset="0.556"
   style="stop-color:#33388F"
   id="stop79" />
			<stop
   offset="0.6686"
   style="stop-color:#304497"
   id="stop81" />
			<stop
   offset="0.7814"
   style="stop-color:#2B58A5"
   id="stop83" />
			<stop
   offset="0.8938"
   style="stop-color:#2474B8"
   id="stop85" />
			<stop
   offset="1"
   style="stop-color:#1B96CF"
   id="stop87" />
		</linearGradient>
		<path
   style="fill:url(#SVGID_00000075153078088734757290000004046133580848484535_);"
   d="M289.2,222.8l-25.9,25.9    c-3.8,3.8-3.8,9.8,0,13.6l25.9,25.9c3.8,3.8,9.8,3.8,13.6,0l25.9-25.9c3.8-3.8,3.8-9.8,0-13.6l-25.9-25.9    C299.1,219,293,219,289.2,222.8z"
   id="path90" />
		
			<linearGradient
   id="SVGID_00000110446777950033243470000003370089684132809914_"
   gradientUnits="userSpaceOnUse"
   x1="261.778"
   y1="255.4503"
   x2="296.024"
   y2="255.4503">
			<stop
   offset="0.106"
   style="stop-color:#1A65A3"
   id="stop92" />
			<stop
   offset="0.2658"
   style="stop-color:#205A9E"
   id="stop94" />
			<stop
   offset="0.7296"
   style="stop-color:#2F3E91"
   id="stop96" />
			<stop
   offset="1"
   style="stop-color:#34348C"
   id="stop98" />
		</linearGradient>
		<path
   style="fill:url(#SVGID_00000110446777950033243470000003370089684132809914_);"
   d="M296,221.2v68.5c-3.2,0-6.4-1.2-8.9-3.7    l-21.7-21.7c-4.9-4.9-4.9-12.8,0-17.7l21.7-21.7C289.6,222.4,292.8,221.2,296,221.2z"
   id="path101" />
		
			<linearGradient
   id="SVGID_00000107563773192968777040000012359858127997282730_"
   gradientUnits="userSpaceOnUse"
   x1="260.5587"
   y1="409.8032"
   x2="331.4893"
   y2="409.8032">
			<stop
   offset="0.4964"
   style="stop-color:#1A65A3"
   id="stop103" />
			<stop
   offset="0.5155"
   style="stop-color:#1A68A6"
   id="stop105" />
			<stop
   offset="0.6992"
   style="stop-color:#1B81BC"
   id="stop107" />
			<stop
   offset="0.8661"
   style="stop-color:#1B91CA"
   id="stop109" />
			<stop
   offset="1"
   style="stop-color:#1B96CF"
   id="stop111" />
		</linearGradient>
		<path
   style="fill:url(#SVGID_00000107563773192968777040000012359858127997282730_);"
   d="M289.2,377.2L263.4,403    c-3.8,3.8-3.8,9.8,0,13.6l25.9,25.9c3.8,3.8,9.8,3.8,13.6,0l25.9-25.9c3.8-3.8,3.8-9.8,0-13.6l-25.9-25.9    C299.1,373.4,293,373.4,289.2,377.2z"
   id="path114" />
		<path
   class="st4"
   d="M296,375.6V444c-3.2,0-6.4-1.2-8.9-3.7l-21.7-21.7c-4.9-4.9-4.9-12.8,0-17.7l21.7-21.7    C289.6,376.8,292.8,375.6,296,375.6z"
   id="path116" />
		
			<linearGradient
   id="SVGID_00000093858654940944366800000014808286984576372389_"
   gradientUnits="userSpaceOnUse"
   x1="380.8781"
   y1="217.248"
   x2="451.8088"
   y2="217.248">
			<stop
   offset="0"
   style="stop-color:#1B96CF"
   id="stop118" />
			<stop
   offset="0.9916"
   style="stop-color:#1B96CF"
   id="stop120" />
		</linearGradient>
		<path
   style="fill:url(#SVGID_00000093858654940944366800000014808286984576372389_);"
   d="M409.6,184.6l-25.9,25.9    c-3.8,3.8-3.8,9.8,0,13.6l25.9,25.9c3.8,3.8,9.8,3.8,13.6,0L449,224c3.8-3.8,3.8-9.8,0-13.6l-25.9-25.9    C419.4,180.8,413.3,180.8,409.6,184.6z"
   id="path123" />
		
			<linearGradient
   id="SVGID_00000160170593532730495330000006268785037808457105_"
   gradientUnits="userSpaceOnUse"
   x1="416.3434"
   y1="217.248"
   x2="450.5894"
   y2="217.248">
			<stop
   offset="0"
   style="stop-color:#1B96CF"
   id="stop125" />
			<stop
   offset="0.2611"
   style="stop-color:#30A2D8"
   id="stop127" />
			<stop
   offset="0.7174"
   style="stop-color:#5EBDEC"
   id="stop129" />
		</linearGradient>
		<path
   style="fill:url(#SVGID_00000160170593532730495330000006268785037808457105_);"
   d="M416.3,183v68.5c3.2,0,6.4-1.2,8.9-3.7    l21.7-21.7c4.9-4.9,4.9-12.8,0-17.7l-21.7-21.7C422.8,184.2,419.6,183,416.3,183z"
   id="path132" />
		
			<linearGradient
   id="SVGID_00000056398219568201680210000014697311401545234620_"
   gradientUnits="userSpaceOnUse"
   x1="396.3134"
   y1="303.6468"
   x2="467.244"
   y2="303.6468">
			<stop
   offset="0"
   style="stop-color:#1B96CF"
   id="stop134" />
			<stop
   offset="0.9916"
   style="stop-color:#1B96CF"
   id="stop136" />
		</linearGradient>
		<path
   style="fill:url(#SVGID_00000056398219568201680210000014697311401545234620_);"
   d="M464.4,296.9L438.6,271    c-3.8-3.8-9.8-3.8-13.6,0l-25.9,25.9c-3.8,3.8-3.8,9.8,0,13.6l25.9,25.9c3.8,3.8,9.8,3.8,13.6,0l25.9-25.9    C468.2,306.7,468.2,300.6,464.4,296.9z"
   id="path139" />
		
			<linearGradient
   id="SVGID_00000028315349066903060990000003949067478263229332_"
   gradientUnits="userSpaceOnUse"
   x1="432.6702"
   y1="303.6468"
   x2="466.9161"
   y2="303.6468">
			<stop
   offset="0"
   style="stop-color:#1B96CF"
   id="stop141" />
			<stop
   offset="0.2822"
   style="stop-color:#35A5DA"
   id="stop143" />
			<stop
   offset="0.6603"
   style="stop-color:#5EBDEC"
   id="stop145" />
		</linearGradient>
		<path
   style="fill:url(#SVGID_00000028315349066903060990000003949067478263229332_);"
   d="M432.7,269.4v68.5c3.2,0,6.4-1.2,8.9-3.7    l21.7-21.7c4.9-4.9,4.9-12.8,0-17.7l-21.7-21.7C439.1,270.6,435.9,269.4,432.7,269.4z"
   id="path148" />
		
			<linearGradient
   id="SVGID_00000100376410094462798380000005732384658440916388_"
   gradientUnits="userSpaceOnUse"
   x1="261.6111"
   y1="171.6497"
   x2="331.965"
   y2="180.2682">
			<stop
   offset="0.5224"
   style="stop-color:#1A65A3"
   id="stop150" />
			<stop
   offset="0.8106"
   style="stop-color:#1B86C0"
   id="stop152" />
			<stop
   offset="1"
   style="stop-color:#1B96CF"
   id="stop154" />
		</linearGradient>
		<path
   style="fill:url(#SVGID_00000100376410094462798380000005732384658440916388_);"
   d="M289.7,143.3l-25.9,25.9    c-3.8,3.8-3.8,9.8,0,13.6l25.9,25.9c3.8,3.8,9.8,3.8,13.6,0l25.9-25.9c3.8-3.8,3.8-9.8,0-13.6l-25.9-25.9    C299.6,139.5,293.5,139.5,289.7,143.3z"
   id="path157" />
		<path
   class="st4"
   d="M296.5,141.7v68.5c-3.2,0-6.4-1.2-8.9-3.7L266,184.8c-4.9-4.9-4.9-12.8,0-17.7l21.7-21.7    C290.1,142.9,293.3,141.7,296.5,141.7z"
   id="path159" />
		
			<linearGradient
   id="SVGID_00000081648618753439900330000016489677478839782528_"
   gradientUnits="userSpaceOnUse"
   x1="260.8692"
   y1="104.8723"
   x2="331.405"
   y2="112.0092">
			<stop
   offset="0.5221"
   style="stop-color:#1A65A3"
   id="stop161" />
			<stop
   offset="0.6931"
   style="stop-color:#1A79B5"
   id="stop163" />
			<stop
   offset="0.8966"
   style="stop-color:#1B96CF"
   id="stop165" />
		</linearGradient>
		<path
   style="fill:url(#SVGID_00000081648618753439900330000016489677478839782528_);"
   d="M289.2,75.8l-25.9,25.9    c-3.8,3.8-3.8,9.8,0,13.6l25.9,25.9c3.8,3.8,9.8,3.8,13.6,0l25.9-25.9c3.8-3.8,3.8-9.8,0-13.6l-25.9-25.9    C299.1,72,293,72,289.2,75.8z"
   id="path168" />
		<path
   class="st4"
   d="M296,74.2v68.5c-3.2,0-6.4-1.2-8.9-3.7l-21.7-21.7c-4.9-4.9-4.9-12.8,0-17.7l21.7-21.7    C289.6,75.4,292.8,74.2,296,74.2z"
   id="path170" />
	</g>
	<g
   id="g204">
		<path
   class="st18"
   d="M375.9,509.9l0.1,0.7C375.9,510.4,375.9,510.2,375.9,509.9z"
   id="path174" />
		<path
   class="st18"
   d="M284.3,509.9l0.1,0.7C284.3,510.4,284.3,510.2,284.3,509.9z"
   id="path176" />
		<path
   class="st18"
   d="M284.3,509.9l0.1,0.7C284.3,510.4,284.3,510.2,284.3,509.9z"
   id="path178" />
		<path
   class="st18"
   d="M263.6,510.1c-1.4-1.5-3.2-2.4-5.6-2.8c1.8-0.5,3.3-1.5,4.4-2.9c1.1-1.4,1.7-3.2,1.7-5.2    c0-2.8-0.9-5-2.8-6.6c-1.9-1.6-4.5-2.3-7.7-2.3h-15.6v2.6h15c2.5,0,4.5,0.5,5.9,1.6c1.4,1.1,2.1,2.8,2.1,5c0,2.2-0.7,3.8-2.2,5    c-1.4,1.1-3.4,1.7-5.9,1.7h-11.9v0h-3v2.6h15.3c2.8,0,5,0.5,6.6,1.7c1.7,1.2,2.6,3,2.6,5.5c0,2.5-0.9,4.3-2.8,5.6    c-1.6,1-3.7,1.6-6.4,1.6h-15.4v2.6h15.5c3.5,0,6.4-0.7,8.4-2.2c2.4-1.7,3.6-4.2,3.6-7.6C265.6,513.6,264.9,511.6,263.6,510.1z"
   id="path180" />
		<path
   class="st18"
   d="M293.1,499.3c-1.9,0-3.6,0.6-5,1.8c-1.2,0.9-2.1,2.2-2.8,3.8V500h-3v25.7h3v-13.6c0-2.6,0.6-4.8,2-6.7    c1.4-2.1,3.3-3.1,5.6-3.1c1.3,0,2.6,0.1,3.9,0.5v-3C295.8,499.5,294.6,499.3,293.1,499.3z"
   id="path182" />
		<path
   class="st18"
   d="M329.6,500v15.6c-0.2,2.4-1,4.4-2.5,5.9c-1.5,1.5-3.2,2.3-5.2,2.3c-2.5,0-4.3-0.7-5.5-2.1    c-1.1-1.3-1.7-3.3-1.7-6V500h-3v15.9c0,7,3.1,10.5,9.4,10.5c3.7,0,6.6-1.7,8.6-5v4.3h3V500H329.6z"
   id="path184" />
		<path
   class="st18"
   d="M366.9,513.5c-1.3-0.8-3.5-1.6-6.7-2.4c-2.6-0.7-4.4-1.3-5.4-1.8c-1.5-0.8-2.3-1.8-2.3-3.1    c0-1.3,0.6-2.3,1.8-3.1c1.2-0.8,2.7-1.1,4.6-1.1c2.3,0,4,0.4,5.2,1.4c1.1,0.8,1.8,2.1,2.1,3.9h2.9c-0.7-5.3-4.2-7.9-10.2-7.9    c-2.7,0-5,0.6-6.8,1.8c-1.9,1.3-2.8,2.9-2.8,5c0,2.1,0.9,3.7,2.9,4.9c1.2,0.7,3.3,1.5,6.3,2.3c2.9,0.8,4.8,1.3,5.7,1.8    c1.7,0.8,2.5,2,2.5,3.6c0,3.4-2.5,5.1-7.5,5.1c-2.4,0-4.2-0.4-5.4-1.3c-1.3-1-2.1-2.6-2.4-4.9h-2.9c0.6,5.9,4.2,8.8,10.8,8.8    c7,0,10.4-2.6,10.4-7.8C370,516.5,369,514.7,366.9,513.5z"
   id="path186" />
		<path
   class="st18"
   d="M402.9,513.5c-1.3-0.8-3.5-1.6-6.7-2.4c-2.6-0.7-4.4-1.3-5.4-1.8c-1.5-0.8-2.3-1.8-2.3-3.1    c0-1.3,0.6-2.3,1.8-3.1c1.2-0.8,2.7-1.1,4.6-1.1c2.3,0,4,0.4,5.2,1.4c1.1,0.8,1.8,2.1,2.1,3.9h2.9c-0.7-5.3-4.2-7.9-10.2-7.9    c-2.7,0-5,0.6-6.8,1.8c-1.9,1.3-2.8,2.9-2.8,5c0,2.1,0.9,3.7,2.9,4.9c1.2,0.7,3.3,1.5,6.3,2.3c2.9,0.8,4.8,1.3,5.7,1.8    c1.7,0.8,2.5,2,2.5,3.6c0,3.4-2.5,5.1-7.5,5.1c-2.4,0-4.2-0.4-5.4-1.3c-1.3-1-2.1-2.6-2.4-4.9h-2.9c0.6,5.9,4.2,8.8,10.8,8.8    c7,0,10.4-2.6,10.4-7.8C405.9,516.5,404.9,514.7,402.9,513.5z"
   id="path188" />
		<path
   class="st18"
   d="M438.3,522c-1.4,1.2-3.3,1.8-5.7,1.8c-2.7,0-4.8-0.9-6.4-2.7c-1.5-1.8-2.4-4.3-2.5-7.4h20.9    c-0.1-4.4-1.1-7.9-2.9-10.3c-2-2.8-5.1-4.1-9.1-4.1c-3.6,0-6.5,1.3-8.7,4c-2.1,2.6-3.2,5.7-3.2,9.5c0,4.1,1.1,7.4,3.3,9.9    c2.1,2.4,5,3.7,8.6,3.7c3.3,0,5.9-0.9,8-2.8c1.7-1.6,2.8-3.6,3.4-6.1h-3C440.4,519.5,439.5,521,438.3,522z M426.5,504.6    c1.5-1.8,3.6-2.6,6.1-2.6c5.4,0,8.4,3.1,8.9,9.4h-17.7C424,508.5,424.9,506.3,426.5,504.6z"
   id="path190" />
		<path
   class="st18"
   d="M461.8,489.6v36.2h3v-36.2H461.8z"
   id="path192" />
		<path
   class="st18"
   d="M500,513.5c-1.3-0.8-3.5-1.6-6.7-2.4c-2.6-0.7-4.4-1.3-5.4-1.8c-1.5-0.8-2.3-1.8-2.3-3.1    c0-1.3,0.6-2.3,1.8-3.1c1.2-0.8,2.7-1.1,4.6-1.1c2.3,0,4,0.4,5.2,1.4c1.1,0.8,1.8,2.1,2.1,3.9h2.9c-0.7-5.3-4.2-7.9-10.2-7.9    c-2.7,0-5,0.6-6.8,1.8c-1.9,1.3-2.8,2.9-2.8,5c0,2.1,0.9,3.7,2.9,4.9c1.2,0.7,3.3,1.5,6.3,2.3c2.9,0.8,4.8,1.3,5.7,1.8    c1.7,0.8,2.5,2,2.5,3.6c0,3.4-2.5,5.1-7.5,5.1c-2.4,0-4.2-0.4-5.4-1.3c-1.3-1-2.1-2.6-2.4-4.9h-2.9c0.6,5.9,4.2,8.8,10.8,8.8    c7,0,10.4-2.6,10.4-7.8C503.1,516.5,502.1,514.7,500,513.5z"
   id="path194" />
		<path
   class="st3"
   d="M109.3,490.8c5.4,0,9.4,1.7,12.1,5.1c2.4,3,3.6,7.2,3.6,12.7c0,5.3-1.4,9.5-4.3,12.7c-3,3.3-7.2,5-12.5,5    H96.9v-35.5H109.3z M98.1,525.1h10.1c5,0,8.8-1.5,11.6-4.6c2.6-3,4-7,4-11.9c0-5.3-1.1-9.2-3.2-12c-2.4-3.1-6.2-4.6-11.2-4.6H98.1    V525.1z"
   id="path196" />
		<path
   class="st3"
   d="M202.9,495.6c2.8,3.4,4.2,7.8,4.2,13c0,5.3-1.4,9.6-4.3,13c-3,3.6-7.1,5.4-12.2,5.4c-5.2,0-9.2-1.8-12.2-5.4    c-2.9-3.4-4.3-7.8-4.3-13c0-5.3,1.4-9.6,4.3-13c3-3.6,7.1-5.4,12.3-5.4C195.8,490.1,199.9,491.9,202.9,495.6z M179.3,496.4    c-2.7,3.2-4,7.3-4,12.2s1.3,9,4,12.2c2.8,3.3,6.6,5,11.3,5c4.7,0,8.5-1.7,11.3-5c2.6-3.2,4-7.3,4-12.2c0-5-1.3-9.1-4-12.2    c-2.8-3.4-6.6-5-11.3-5C185.9,491.3,182.1,493,179.3,496.4z"
   id="path198" />
		<path
   class="st3"
   d="M223.6,523.6c0.3,0.3,0.5,0.6,0.5,1.1c0,0.4-0.2,0.8-0.5,1.1c-0.3,0.3-0.7,0.5-1.1,0.5    c-0.5,0-0.8-0.2-1.1-0.5c-0.3-0.3-0.5-0.7-0.5-1.1c0-0.5,0.1-0.8,0.5-1.1c0.3-0.3,0.6-0.5,1.1-0.5    C222.9,523.1,223.3,523.2,223.6,523.6z"
   id="path200" />
		<path
   class="st3"
   d="M150.3,490.8h-1.6l-14.6,35.5h1.4l4.4-10.7l0.4-1l1.1-2.6h0l8.1-19.9h0.2l8.1,19.9l0.6,1.4l0.5,1.2h0    l4.8,11.7h1.4L150.3,490.8z"
   id="path202" />
	</g>
</g>
</svg>
