<?xml version="1.0" encoding="UTF-8" standalone="no"?>
<!-- Generator: Adobe Illustrator 25.4.1, SVG Export Plug-In . SVG Version: 6.00 Build 0)  -->

<svg
   version="1.1"
   id="Layer_1"
   x="0px"
   y="0px"
   viewBox="0 0 600 600"
   style="enable-background:new 0 0 600 600;"
   xml:space="preserve"
   sodipodi:docname="logo-dao-brussels-white-original.svg"
   inkscape:version="1.2.2 (b0a84865, 2022-12-01)"
   inkscape:export-filename="logo-dao-brussels-white-600x600.png"
   inkscape:export-xdpi="96"
   inkscape:export-ydpi="96"
   xmlns:inkscape="http://www.inkscape.org/namespaces/inkscape"
   xmlns:sodipodi="http://sodipodi.sourceforge.net/DTD/sodipodi-0.dtd"
   xmlns="http://www.w3.org/2000/svg"
   xmlns:svg="http://www.w3.org/2000/svg"><defs
   id="defs211" /><sodipodi:namedview
   id="namedview209"
   pagecolor="#000000"
   bordercolor="#000000"
   borderopacity="0.2627451"
   inkscape:showpageshadow="2"
   inkscape:pageopacity="0"
   inkscape:pagecheckerboard="0"
   inkscape:deskcolor="#d1d1d1"
   showgrid="false"
   inkscape:zoom="1.5733333"
   inkscape:cx="141.73729"
   inkscape:cy="216.4195"
   inkscape:window-width="3008"
   inkscape:window-height="1639"
   inkscape:window-x="0"
   inkscape:window-y="25"
   inkscape:window-maximized="0"
   inkscape:current-layer="Layer_1" />
<style
   type="text/css"
   id="style2">
	.st0{fill:#297BAE;}
	.st1{fill:#5AAFDF;}
	.st2{fill:url(#SVGID_1_);}
	.st3{fill:#1B96CF;}
	.st4{fill:#1A65A3;}
	.st5{fill:url(#SVGID_00000162339776839076968110000010339379684442839171_);}
	.st6{fill:url(#SVGID_00000167363922337205522660000011028882163601476751_);}
	.st7{fill:url(#SVGID_00000139285688170924310720000006086124992302023600_);}
	.st8{fill:url(#SVGID_00000017474202015847215930000006034702883185048468_);}
	.st9{fill:url(#SVGID_00000163772611464672147530000014953913871290556851_);}
	.st10{fill:url(#SVGID_00000016782257604482242860000011993734645780000145_);}
	.st11{fill:url(#SVGID_00000014628595105849499880000004027531985476261037_);}
	.st12{fill:url(#SVGID_00000163793877344092740880000014129728260665079947_);}
	.st13{fill:url(#SVGID_00000160913445963469297740000014244350252387666564_);}
	.st14{fill:url(#SVGID_00000183223798527021379680000010320859901076142737_);}
	.st15{fill:url(#SVGID_00000143609349875219882940000004374132123856449424_);}
	.st16{fill:url(#SVGID_00000140005476032968653170000000551801937306376631_);}
	.st17{fill:url(#SVGID_00000003822252745209737930000004990560900817394623_);}
	.st18{fill:#34348C;}
</style>
<g
   id="g206"
   style="display:inline;fill:#ffffff;fill-opacity:1">
	<g
   id="g172"
   style="fill:#ffffff;fill-opacity:1">
		<path
   class="st0"
   d="m 302.9,385.7 c 0,0 -4.5,-32.2 -1.1,-50.4 l -10.5,-0.4 c 0,0 5.6,39.4 -5.1,47.9 z"
   id="path4"
   style="fill:#ffffff;fill-opacity:1" />
		<path
   class="st1"
   d="m 406.8,237.2 c -19.5,9.9 -41.4,15.9 -81.8,75 h -10.3 l -3,-15.7 c 0,0 5.1,11.4 43.4,-31.8 38.3,-43.2 38.4,-43.2 38.4,-43.2 l 12.8,-3.8 6.1,9.7 z"
   id="path6"
   style="fill:#ffffff;fill-opacity:1" />
		<path
   class="st0"
   d="m 189,236.9 c 19.1,9.7 40.5,15.6 80.1,73.7 h 10.1 l 2.9,-15.5 c 0,0 -4.9,11.2 -42.5,-31.3 C 202,221.3 202,221.4 202,221.4 l -12.5,-3.7 -6,9.5 z"
   id="path8"
   style="fill:#ffffff;fill-opacity:1" />
		<path
   class="st1"
   d="m 288.6,283.9 -25.9,25.9 c -3.8,3.8 -3.8,9.8 0,13.6 l 25.9,25.9 c 3.8,3.8 9.8,3.8 13.6,0 l 25.9,-25.9 c 3.8,-3.8 3.8,-9.8 0,-13.6 l -25.9,-25.9 c -3.8,-3.8 -9.9,-3.8 -13.6,0 z"
   id="path10"
   style="fill:#ffffff;fill-opacity:1" />
		<linearGradient
   id="SVGID_1_"
   gradientUnits="userSpaceOnUse"
   x1="261.10431"
   y1="316.50949"
   x2="295.35031"
   y2="316.50949">
			<stop
   offset="0.3155"
   style="stop-color:#297BAE"
   id="stop12" />
			<stop
   offset="0.4914"
   style="stop-color:#2F82B4"
   id="stop14" />
			<stop
   offset="0.7455"
   style="stop-color:#4295C7"
   id="stop16" />
			<stop
   offset="1"
   style="stop-color:#5AAFDF"
   id="stop18" />
		</linearGradient>
		<path
   class="st2"
   d="m 295.4,282.3 v 68.5 c -3.2,0 -6.4,-1.2 -8.9,-3.7 l -21.7,-21.7 c -4.9,-4.9 -4.9,-12.8 0,-17.7 L 286.5,286 c 2.4,-2.5 5.6,-3.7 8.9,-3.7 z"
   id="path21"
   style="fill:#ffffff;fill-opacity:1" />
		<path
   class="st0"
   d="m 303.3,231.6 c 0,0 -4.9,-20.3 -1.8,-31.8 L 291,199.4 c 0,0 6.1,24.9 -4.5,30.1 z"
   id="path23"
   style="fill:#ffffff;fill-opacity:1" />
		<path
   class="st3"
   d="m 407.9,224.2 c -20.9,2.7 -42.2,-1.7 -101.2,60 l -8.9,-6.2 3.9,-24.6 c 0,0 -0.3,19.6 50.5,-20.2 50.8,-39.8 50.7,-39.8 50.7,-39.8 l 12.6,2.2 1.3,17.7 z"
   id="path25"
   style="fill:#ffffff;fill-opacity:1" />
		<path
   class="st4"
   d="m 184.2,224.2 c 20.9,2.7 42.2,-1.7 101.2,60 l 8.9,-6.2 -3.9,-24.6 c 0,0 0.3,19.6 -50.5,-20.2 -50.8,-39.8 -50.7,-39.8 -50.7,-39.8 l -12.6,2.2 -1.3,17.7 z"
   id="path27"
   style="fill:#ffffff;fill-opacity:1" />
		<path
   class="st3"
   d="m 417.3,293.4 c -22.1,0.2 -45,6.9 -104.7,-40.8 l -9.8,6.7 2.9,21.5 c 0,0 0.7,-17.5 52.7,11.7 52,29.1 52,29.1 52,29.1 l 13.5,-3.6 2.3,-16 z"
   id="path29"
   style="fill:#ffffff;fill-opacity:1" />
		<path
   class="st4"
   d="m 183,292.7 c 21.7,0.2 44.2,6.8 102.7,-39.9 l 9.6,6.5 -2.8,21.1 c 0,0 -0.7,-17.1 -51.7,11.4 -51,28.5 -51,28.5 -51,28.5 l -13.2,-3.5 -2.3,-15.7 z"
   id="path31"
   style="fill:#ffffff;fill-opacity:1" />
		<path
   class="st4"
   d="m 168.6,318.4 c 27.5,13.5 51.4,11.8 108.5,82.4 l 21.5,11.3 4.2,-19.7 c 0,0 -7.1,14.2 -61.3,-39.7 -54.2,-53.9 -54.2,-54 -54.2,-54 l -18.1,-4.7 -8.7,12.1 z"
   id="path33"
   style="fill:#ffffff;fill-opacity:1" />
		<path
   class="st3"
   d="m 429.2,318.4 c -29.1,13.5 -54.4,11.8 -114.9,82.4 l -22.8,11.3 -4.4,-19.7 c 0,0 7.5,14.2 64.9,-39.7 57.4,-53.9 57.3,-54 57.3,-54 l 19.1,-4.7 9.2,12.1 z"
   id="path35"
   style="fill:#ffffff;fill-opacity:1" />
		<path
   class="st3"
   d="M 419.4,277.1 C 395.3,262.9 368.3,254.4 318.5,169.9 h -12.8 l -3.7,22.5 c 0,0 6.2,-16.3 53.6,45.5 47.4,61.8 47.3,61.7 47.3,61.7 l 15.8,5.4 7.6,-13.8 z"
   id="path37"
   style="fill:#ffffff;fill-opacity:1" />
		<path
   class="st4"
   d="m 179.1,277.1 c 22.8,-14.2 48.4,-22.7 95.7,-107.2 h 12.1 l 3.5,22.5 c 0,0 -5.9,-16.3 -50.8,45.5 -44.9,61.8 -44.9,61.7 -44.9,61.7 l -15,5.4 -7.2,-13.8 z"
   id="path39"
   style="fill:#ffffff;fill-opacity:1" />
		<path
   class="st3"
   d="M 423.4,199 C 399.3,188.1 372.3,181.6 322.5,116.9 h -12.8 l -3.7,17.2 c 0,0 6.2,-12.5 53.6,34.8 47.4,47.3 47.3,47.3 47.3,47.3 l 15.8,4.1 7.6,-10.6 z"
   id="path41"
   style="fill:#ffffff;fill-opacity:1" />
		<path
   class="st4"
   d="m 173,199 c 24.1,-10.9 51.1,-17.4 100.9,-82.1 h 12.8 l 3.7,17.2 c 0,0 -6.2,-12.5 -53.6,34.8 -47.4,47.3 -47.3,47.3 -47.3,47.3 l -15.8,4.1 -7.6,-10.6 z"
   id="path43"
   style="fill:#ffffff;fill-opacity:1" />
		
			<linearGradient
   id="SVGID_00000110453312790595291590000008716526760142607755_"
   gradientUnits="userSpaceOnUse"
   x1="132.756"
   y1="303.64679"
   x2="203.6866"
   y2="303.64679">
			<stop
   offset="0.5146"
   style="stop-color:#34348C"
   id="stop45" />
			<stop
   offset="0.7183"
   style="stop-color:#23549B"
   id="stop47" />
			<stop
   offset="0.8616"
   style="stop-color:#1A65A3"
   id="stop49" />
		</linearGradient>
		<path
   style="fill:#ffffff;fill-opacity:1"
   d="m 161.4,271 -25.9,25.9 c -3.8,3.8 -3.8,9.8 0,13.6 l 25.9,25.9 c 3.8,3.8 9.8,3.8 13.6,0 l 25.9,-25.9 c 3.8,-3.8 3.8,-9.8 0,-13.6 L 175,271 c -3.7,-3.8 -9.8,-3.8 -13.6,0 z"
   id="path52" />
		
			<linearGradient
   id="SVGID_00000065775884258988083810000017560649419572252049_"
   gradientUnits="userSpaceOnUse"
   x1="133.9753"
   y1="303.64679"
   x2="168.2213"
   y2="303.64679">
			<stop
   offset="0"
   style="stop-color:#1A0056"
   id="stop54" />
			<stop
   offset="0.7809"
   style="stop-color:#34348C"
   id="stop56" />
		</linearGradient>
		<path
   style="fill:#ffffff;fill-opacity:1"
   d="m 168.2,269.4 v 68.5 c -3.2,0 -6.4,-1.2 -8.9,-3.7 l -21.7,-21.7 c -4.9,-4.9 -4.9,-12.8 0,-17.7 l 21.7,-21.7 c 2.5,-2.5 5.7,-3.7 8.9,-3.7 z"
   id="path59" />
		
			<linearGradient
   id="SVGID_00000072243521451651371640000014852200268976633265_"
   gradientUnits="userSpaceOnUse"
   x1="141.2453"
   y1="217.248"
   x2="212.17599"
   y2="217.248">
			<stop
   offset="0.5029"
   style="stop-color:#34348C"
   id="stop61" />
			<stop
   offset="0.6757"
   style="stop-color:#23549B"
   id="stop63" />
			<stop
   offset="0.7972"
   style="stop-color:#1A65A3"
   id="stop65" />
		</linearGradient>
		<path
   style="fill:#ffffff;fill-opacity:1"
   d="M 169.9,184.6 144,210.5 c -3.8,3.8 -3.8,9.8 0,13.6 l 25.9,25.9 c 3.8,3.8 9.8,3.8 13.6,0 l 25.9,-25.9 c 3.8,-3.8 3.8,-9.8 0,-13.6 l -25.9,-25.9 c -3.7,-3.8 -9.8,-3.8 -13.6,0 z"
   id="path68" />
		
			<linearGradient
   id="SVGID_00000181808839883107282460000012278313269232499636_"
   gradientUnits="userSpaceOnUse"
   x1="142.46471"
   y1="217.248"
   x2="176.71069"
   y2="217.248">
			<stop
   offset="0"
   style="stop-color:#1A0056"
   id="stop70" />
			<stop
   offset="0.7809"
   style="stop-color:#34348C"
   id="stop72" />
		</linearGradient>
		<path
   style="fill:#ffffff;fill-opacity:1"
   d="m 176.7,183 v 68.5 c -3.2,0 -6.4,-1.2 -8.9,-3.7 l -21.7,-21.7 c -4.9,-4.9 -4.9,-12.8 0,-17.7 l 21.7,-21.7 c 2.5,-2.5 5.7,-3.7 8.9,-3.7 z"
   id="path75" />
		
			<linearGradient
   id="SVGID_00000075153078088734757290000004046133580848484535_"
   gradientUnits="userSpaceOnUse"
   x1="260.55869"
   y1="255.4503"
   x2="331.48929"
   y2="255.4503">
			<stop
   offset="0.4438"
   style="stop-color:#34348C"
   id="stop77" />
			<stop
   offset="0.556"
   style="stop-color:#33388F"
   id="stop79" />
			<stop
   offset="0.6686"
   style="stop-color:#304497"
   id="stop81" />
			<stop
   offset="0.7814"
   style="stop-color:#2B58A5"
   id="stop83" />
			<stop
   offset="0.8938"
   style="stop-color:#2474B8"
   id="stop85" />
			<stop
   offset="1"
   style="stop-color:#1B96CF"
   id="stop87" />
		</linearGradient>
		<path
   style="fill:#ffffff;fill-opacity:1"
   d="m 289.2,222.8 -25.9,25.9 c -3.8,3.8 -3.8,9.8 0,13.6 l 25.9,25.9 c 3.8,3.8 9.8,3.8 13.6,0 l 25.9,-25.9 c 3.8,-3.8 3.8,-9.8 0,-13.6 l -25.9,-25.9 c -3.7,-3.8 -9.8,-3.8 -13.6,0 z"
   id="path90" />
		
			<linearGradient
   id="SVGID_00000110446777950033243470000003370089684132809914_"
   gradientUnits="userSpaceOnUse"
   x1="261.77802"
   y1="255.4503"
   x2="296.02399"
   y2="255.4503">
			<stop
   offset="0.106"
   style="stop-color:#1A65A3"
   id="stop92" />
			<stop
   offset="0.2658"
   style="stop-color:#205A9E"
   id="stop94" />
			<stop
   offset="0.7296"
   style="stop-color:#2F3E91"
   id="stop96" />
			<stop
   offset="1"
   style="stop-color:#34348C"
   id="stop98" />
		</linearGradient>
		<path
   style="fill:#ffffff;fill-opacity:1"
   d="m 296,221.2 v 68.5 c -3.2,0 -6.4,-1.2 -8.9,-3.7 l -21.7,-21.7 c -4.9,-4.9 -4.9,-12.8 0,-17.7 l 21.7,-21.7 c 2.5,-2.5 5.7,-3.7 8.9,-3.7 z"
   id="path101" />
		
			<linearGradient
   id="SVGID_00000107563773192968777040000012359858127997282730_"
   gradientUnits="userSpaceOnUse"
   x1="260.55869"
   y1="409.80319"
   x2="331.48929"
   y2="409.80319">
			<stop
   offset="0.4964"
   style="stop-color:#1A65A3"
   id="stop103" />
			<stop
   offset="0.5155"
   style="stop-color:#1A68A6"
   id="stop105" />
			<stop
   offset="0.6992"
   style="stop-color:#1B81BC"
   id="stop107" />
			<stop
   offset="0.8661"
   style="stop-color:#1B91CA"
   id="stop109" />
			<stop
   offset="1"
   style="stop-color:#1B96CF"
   id="stop111" />
		</linearGradient>
		<path
   style="fill:#ffffff;fill-opacity:1"
   d="M 289.2,377.2 263.4,403 c -3.8,3.8 -3.8,9.8 0,13.6 l 25.9,25.9 c 3.8,3.8 9.8,3.8 13.6,0 l 25.9,-25.9 c 3.8,-3.8 3.8,-9.8 0,-13.6 l -25.9,-25.9 c -3.8,-3.7 -9.9,-3.7 -13.7,0.1 z"
   id="path114" />
		<path
   class="st4"
   d="M 296,375.6 V 444 c -3.2,0 -6.4,-1.2 -8.9,-3.7 l -21.7,-21.7 c -4.9,-4.9 -4.9,-12.8 0,-17.7 l 21.7,-21.7 c 2.5,-2.4 5.7,-3.6 8.9,-3.6 z"
   id="path116"
   style="fill:#ffffff;fill-opacity:1" />
		
			<linearGradient
   id="SVGID_00000093858654940944366800000014808286984576372389_"
   gradientUnits="userSpaceOnUse"
   x1="380.87811"
   y1="217.248"
   x2="451.80881"
   y2="217.248">
			<stop
   offset="0"
   style="stop-color:#1B96CF"
   id="stop118" />
			<stop
   offset="0.9916"
   style="stop-color:#1B96CF"
   id="stop120" />
		</linearGradient>
		<path
   style="fill:#ffffff;fill-opacity:1"
   d="m 409.6,184.6 -25.9,25.9 c -3.8,3.8 -3.8,9.8 0,13.6 l 25.9,25.9 c 3.8,3.8 9.8,3.8 13.6,0 L 449,224 c 3.8,-3.8 3.8,-9.8 0,-13.6 l -25.9,-25.9 c -3.7,-3.7 -9.8,-3.7 -13.5,0.1 z"
   id="path123" />
		
			<linearGradient
   id="SVGID_00000160170593532730495330000006268785037808457105_"
   gradientUnits="userSpaceOnUse"
   x1="416.34341"
   y1="217.248"
   x2="450.58939"
   y2="217.248">
			<stop
   offset="0"
   style="stop-color:#1B96CF"
   id="stop125" />
			<stop
   offset="0.2611"
   style="stop-color:#30A2D8"
   id="stop127" />
			<stop
   offset="0.7174"
   style="stop-color:#5EBDEC"
   id="stop129" />
		</linearGradient>
		<path
   style="fill:#ffffff;fill-opacity:1"
   d="m 416.3,183 v 68.5 c 3.2,0 6.4,-1.2 8.9,-3.7 l 21.7,-21.7 c 4.9,-4.9 4.9,-12.8 0,-17.7 l -21.7,-21.7 c -2.4,-2.5 -5.6,-3.7 -8.9,-3.7 z"
   id="path132" />
		
			<linearGradient
   id="SVGID_00000056398219568201680210000014697311401545234620_"
   gradientUnits="userSpaceOnUse"
   x1="396.31339"
   y1="303.64679"
   x2="467.24399"
   y2="303.64679">
			<stop
   offset="0"
   style="stop-color:#1B96CF"
   id="stop134" />
			<stop
   offset="0.9916"
   style="stop-color:#1B96CF"
   id="stop136" />
		</linearGradient>
		<path
   style="fill:#ffffff;fill-opacity:1"
   d="M 464.4,296.9 438.6,271 c -3.8,-3.8 -9.8,-3.8 -13.6,0 l -25.9,25.9 c -3.8,3.8 -3.8,9.8 0,13.6 l 25.9,25.9 c 3.8,3.8 9.8,3.8 13.6,0 l 25.9,-25.9 c 3.7,-3.8 3.7,-9.9 -0.1,-13.6 z"
   id="path139" />
		
			<linearGradient
   id="SVGID_00000028315349066903060990000003949067478263229332_"
   gradientUnits="userSpaceOnUse"
   x1="432.6702"
   y1="303.64679"
   x2="466.91611"
   y2="303.64679">
			<stop
   offset="0"
   style="stop-color:#1B96CF"
   id="stop141" />
			<stop
   offset="0.2822"
   style="stop-color:#35A5DA"
   id="stop143" />
			<stop
   offset="0.6603"
   style="stop-color:#5EBDEC"
   id="stop145" />
		</linearGradient>
		<path
   style="fill:#ffffff;fill-opacity:1"
   d="m 432.7,269.4 v 68.5 c 3.2,0 6.4,-1.2 8.9,-3.7 l 21.7,-21.7 c 4.9,-4.9 4.9,-12.8 0,-17.7 l -21.7,-21.7 c -2.5,-2.5 -5.7,-3.7 -8.9,-3.7 z"
   id="path148" />
		
			<linearGradient
   id="SVGID_00000100376410094462798380000005732384658440916388_"
   gradientUnits="userSpaceOnUse"
   x1="261.61111"
   y1="171.6497"
   x2="331.965"
   y2="180.2682">
			<stop
   offset="0.5224"
   style="stop-color:#1A65A3"
   id="stop150" />
			<stop
   offset="0.8106"
   style="stop-color:#1B86C0"
   id="stop152" />
			<stop
   offset="1"
   style="stop-color:#1B96CF"
   id="stop154" />
		</linearGradient>
		<path
   style="fill:#ffffff;fill-opacity:1"
   d="m 289.7,143.3 -25.9,25.9 c -3.8,3.8 -3.8,9.8 0,13.6 l 25.9,25.9 c 3.8,3.8 9.8,3.8 13.6,0 l 25.9,-25.9 c 3.8,-3.8 3.8,-9.8 0,-13.6 l -25.9,-25.9 c -3.7,-3.8 -9.8,-3.8 -13.6,0 z"
   id="path157" />
		<path
   class="st4"
   d="m 296.5,141.7 v 68.5 c -3.2,0 -6.4,-1.2 -8.9,-3.7 L 266,184.8 c -4.9,-4.9 -4.9,-12.8 0,-17.7 l 21.7,-21.7 c 2.4,-2.5 5.6,-3.7 8.8,-3.7 z"
   id="path159"
   style="fill:#ffffff;fill-opacity:1" />
		
			<linearGradient
   id="SVGID_00000081648618753439900330000016489677478839782528_"
   gradientUnits="userSpaceOnUse"
   x1="260.8692"
   y1="104.8723"
   x2="331.405"
   y2="112.0092">
			<stop
   offset="0.5221"
   style="stop-color:#1A65A3"
   id="stop161" />
			<stop
   offset="0.6931"
   style="stop-color:#1A79B5"
   id="stop163" />
			<stop
   offset="0.8966"
   style="stop-color:#1B96CF"
   id="stop165" />
		</linearGradient>
		<path
   style="fill:#ffffff;fill-opacity:1"
   d="m 289.2,75.8 -25.9,25.9 c -3.8,3.8 -3.8,9.8 0,13.6 l 25.9,25.9 c 3.8,3.8 9.8,3.8 13.6,0 l 25.9,-25.9 c 3.8,-3.8 3.8,-9.8 0,-13.6 L 302.8,75.8 C 299.1,72 293,72 289.2,75.8 Z"
   id="path168" />
		<path
   class="st4"
   d="m 296,74.2 v 68.5 c -3.2,0 -6.4,-1.2 -8.9,-3.7 l -21.7,-21.7 c -4.9,-4.9 -4.9,-12.8 0,-17.7 l 21.7,-21.7 c 2.5,-2.5 5.7,-3.7 8.9,-3.7 z"
   id="path170"
   style="fill:#ffffff;fill-opacity:1" />
	</g>
	<g
   id="g204"
   style="fill:#ffffff;fill-opacity:1">
		<path
   class="st18"
   d="m 375.9,509.9 0.1,0.7 c -0.1,-0.2 -0.1,-0.4 -0.1,-0.7 z"
   id="path174"
   style="fill:#ffffff;fill-opacity:1" />
		<path
   class="st18"
   d="m 284.3,509.9 0.1,0.7 c -0.1,-0.2 -0.1,-0.4 -0.1,-0.7 z"
   id="path176"
   style="fill:#ffffff;fill-opacity:1" />
		<path
   class="st18"
   d="m 284.3,509.9 0.1,0.7 c -0.1,-0.2 -0.1,-0.4 -0.1,-0.7 z"
   id="path178"
   style="fill:#ffffff;fill-opacity:1" />
		<path
   class="st18"
   d="m 263.6,510.1 c -1.4,-1.5 -3.2,-2.4 -5.6,-2.8 1.8,-0.5 3.3,-1.5 4.4,-2.9 1.1,-1.4 1.7,-3.2 1.7,-5.2 0,-2.8 -0.9,-5 -2.8,-6.6 -1.9,-1.6 -4.5,-2.3 -7.7,-2.3 H 238 v 2.6 h 15 c 2.5,0 4.5,0.5 5.9,1.6 1.4,1.1 2.1,2.8 2.1,5 0,2.2 -0.7,3.8 -2.2,5 -1.4,1.1 -3.4,1.7 -5.9,1.7 H 241 v 0 h -3 v 2.6 h 15.3 c 2.8,0 5,0.5 6.6,1.7 1.7,1.2 2.6,3 2.6,5.5 0,2.5 -0.9,4.3 -2.8,5.6 -1.6,1 -3.7,1.6 -6.4,1.6 h -15.4 v 2.6 h 15.5 c 3.5,0 6.4,-0.7 8.4,-2.2 2.4,-1.7 3.6,-4.2 3.6,-7.6 0.2,-2.4 -0.5,-4.4 -1.8,-5.9 z"
   id="path180"
   style="fill:#ffffff;fill-opacity:1" />
		<path
   class="st18"
   d="m 293.1,499.3 c -1.9,0 -3.6,0.6 -5,1.8 -1.2,0.9 -2.1,2.2 -2.8,3.8 V 500 h -3 v 25.7 h 3 v -13.6 c 0,-2.6 0.6,-4.8 2,-6.7 1.4,-2.1 3.3,-3.1 5.6,-3.1 1.3,0 2.6,0.1 3.9,0.5 v -3 c -1,-0.3 -2.2,-0.5 -3.7,-0.5 z"
   id="path182"
   style="fill:#ffffff;fill-opacity:1" />
		<path
   class="st18"
   d="m 329.6,500 v 15.6 c -0.2,2.4 -1,4.4 -2.5,5.9 -1.5,1.5 -3.2,2.3 -5.2,2.3 -2.5,0 -4.3,-0.7 -5.5,-2.1 -1.1,-1.3 -1.7,-3.3 -1.7,-6 V 500 h -3 v 15.9 c 0,7 3.1,10.5 9.4,10.5 3.7,0 6.6,-1.7 8.6,-5 v 4.3 h 3 V 500 Z"
   id="path184"
   style="fill:#ffffff;fill-opacity:1" />
		<path
   class="st18"
   d="m 366.9,513.5 c -1.3,-0.8 -3.5,-1.6 -6.7,-2.4 -2.6,-0.7 -4.4,-1.3 -5.4,-1.8 -1.5,-0.8 -2.3,-1.8 -2.3,-3.1 0,-1.3 0.6,-2.3 1.8,-3.1 1.2,-0.8 2.7,-1.1 4.6,-1.1 2.3,0 4,0.4 5.2,1.4 1.1,0.8 1.8,2.1 2.1,3.9 h 2.9 c -0.7,-5.3 -4.2,-7.9 -10.2,-7.9 -2.7,0 -5,0.6 -6.8,1.8 -1.9,1.3 -2.8,2.9 -2.8,5 0,2.1 0.9,3.7 2.9,4.9 1.2,0.7 3.3,1.5 6.3,2.3 2.9,0.8 4.8,1.3 5.7,1.8 1.7,0.8 2.5,2 2.5,3.6 0,3.4 -2.5,5.1 -7.5,5.1 -2.4,0 -4.2,-0.4 -5.4,-1.3 -1.3,-1 -2.1,-2.6 -2.4,-4.9 h -2.9 c 0.6,5.9 4.2,8.8 10.8,8.8 7,0 10.4,-2.6 10.4,-7.8 0.3,-2.2 -0.7,-4 -2.8,-5.2 z"
   id="path186"
   style="fill:#ffffff;fill-opacity:1" />
		<path
   class="st18"
   d="m 402.9,513.5 c -1.3,-0.8 -3.5,-1.6 -6.7,-2.4 -2.6,-0.7 -4.4,-1.3 -5.4,-1.8 -1.5,-0.8 -2.3,-1.8 -2.3,-3.1 0,-1.3 0.6,-2.3 1.8,-3.1 1.2,-0.8 2.7,-1.1 4.6,-1.1 2.3,0 4,0.4 5.2,1.4 1.1,0.8 1.8,2.1 2.1,3.9 h 2.9 c -0.7,-5.3 -4.2,-7.9 -10.2,-7.9 -2.7,0 -5,0.6 -6.8,1.8 -1.9,1.3 -2.8,2.9 -2.8,5 0,2.1 0.9,3.7 2.9,4.9 1.2,0.7 3.3,1.5 6.3,2.3 2.9,0.8 4.8,1.3 5.7,1.8 1.7,0.8 2.5,2 2.5,3.6 0,3.4 -2.5,5.1 -7.5,5.1 -2.4,0 -4.2,-0.4 -5.4,-1.3 -1.3,-1 -2.1,-2.6 -2.4,-4.9 h -2.9 c 0.6,5.9 4.2,8.8 10.8,8.8 7,0 10.4,-2.6 10.4,-7.8 0.2,-2.2 -0.8,-4 -2.8,-5.2 z"
   id="path188"
   style="fill:#ffffff;fill-opacity:1" />
		<path
   class="st18"
   d="m 438.3,522 c -1.4,1.2 -3.3,1.8 -5.7,1.8 -2.7,0 -4.8,-0.9 -6.4,-2.7 -1.5,-1.8 -2.4,-4.3 -2.5,-7.4 h 20.9 c -0.1,-4.4 -1.1,-7.9 -2.9,-10.3 -2,-2.8 -5.1,-4.1 -9.1,-4.1 -3.6,0 -6.5,1.3 -8.7,4 -2.1,2.6 -3.2,5.7 -3.2,9.5 0,4.1 1.1,7.4 3.3,9.9 2.1,2.4 5,3.7 8.6,3.7 3.3,0 5.9,-0.9 8,-2.8 1.7,-1.6 2.8,-3.6 3.4,-6.1 h -3 c -0.6,2 -1.5,3.5 -2.7,4.5 z m -11.8,-17.4 c 1.5,-1.8 3.6,-2.6 6.1,-2.6 5.4,0 8.4,3.1 8.9,9.4 h -17.7 c 0.2,-2.9 1.1,-5.1 2.7,-6.8 z"
   id="path190"
   style="fill:#ffffff;fill-opacity:1" />
		<path
   class="st18"
   d="m 461.8,489.6 v 36.2 h 3 v -36.2 z"
   id="path192"
   style="fill:#ffffff;fill-opacity:1" />
		<path
   class="st18"
   d="m 500,513.5 c -1.3,-0.8 -3.5,-1.6 -6.7,-2.4 -2.6,-0.7 -4.4,-1.3 -5.4,-1.8 -1.5,-0.8 -2.3,-1.8 -2.3,-3.1 0,-1.3 0.6,-2.3 1.8,-3.1 1.2,-0.8 2.7,-1.1 4.6,-1.1 2.3,0 4,0.4 5.2,1.4 1.1,0.8 1.8,2.1 2.1,3.9 h 2.9 c -0.7,-5.3 -4.2,-7.9 -10.2,-7.9 -2.7,0 -5,0.6 -6.8,1.8 -1.9,1.3 -2.8,2.9 -2.8,5 0,2.1 0.9,3.7 2.9,4.9 1.2,0.7 3.3,1.5 6.3,2.3 2.9,0.8 4.8,1.3 5.7,1.8 1.7,0.8 2.5,2 2.5,3.6 0,3.4 -2.5,5.1 -7.5,5.1 -2.4,0 -4.2,-0.4 -5.4,-1.3 -1.3,-1 -2.1,-2.6 -2.4,-4.9 h -2.9 c 0.6,5.9 4.2,8.8 10.8,8.8 7,0 10.4,-2.6 10.4,-7.8 0.3,-2.2 -0.7,-4 -2.8,-5.2 z"
   id="path194"
   style="fill:#ffffff;fill-opacity:1" />
		<path
   class="st3"
   d="m 109.3,490.8 c 5.4,0 9.4,1.7 12.1,5.1 2.4,3 3.6,7.2 3.6,12.7 0,5.3 -1.4,9.5 -4.3,12.7 -3,3.3 -7.2,5 -12.5,5 H 96.9 v -35.5 z m -11.2,34.3 h 10.1 c 5,0 8.8,-1.5 11.6,-4.6 2.6,-3 4,-7 4,-11.9 0,-5.3 -1.1,-9.2 -3.2,-12 -2.4,-3.1 -6.2,-4.6 -11.2,-4.6 H 98.1 Z"
   id="path196"
   style="fill:#ffffff;fill-opacity:1" />
		<path
   class="st3"
   d="m 202.9,495.6 c 2.8,3.4 4.2,7.8 4.2,13 0,5.3 -1.4,9.6 -4.3,13 -3,3.6 -7.1,5.4 -12.2,5.4 -5.2,0 -9.2,-1.8 -12.2,-5.4 -2.9,-3.4 -4.3,-7.8 -4.3,-13 0,-5.3 1.4,-9.6 4.3,-13 3,-3.6 7.1,-5.4 12.3,-5.4 5.1,-0.1 9.2,1.7 12.2,5.4 z m -23.6,0.8 c -2.7,3.2 -4,7.3 -4,12.2 0,4.9 1.3,9 4,12.2 2.8,3.3 6.6,5 11.3,5 4.7,0 8.5,-1.7 11.3,-5 2.6,-3.2 4,-7.3 4,-12.2 0,-5 -1.3,-9.1 -4,-12.2 -2.8,-3.4 -6.6,-5 -11.3,-5 -4.7,-0.1 -8.5,1.6 -11.3,5 z"
   id="path198"
   style="fill:#ffffff;fill-opacity:1" />
		<path
   class="st3"
   d="m 223.6,523.6 c 0.3,0.3 0.5,0.6 0.5,1.1 0,0.4 -0.2,0.8 -0.5,1.1 -0.3,0.3 -0.7,0.5 -1.1,0.5 -0.5,0 -0.8,-0.2 -1.1,-0.5 -0.3,-0.3 -0.5,-0.7 -0.5,-1.1 0,-0.5 0.1,-0.8 0.5,-1.1 0.3,-0.3 0.6,-0.5 1.1,-0.5 0.4,0 0.8,0.1 1.1,0.5 z"
   id="path200"
   style="fill:#ffffff;fill-opacity:1" />
		<path
   class="st3"
   d="m 150.3,490.8 h -1.6 l -14.6,35.5 h 1.4 l 4.4,-10.7 0.4,-1 1.1,-2.6 v 0 l 8.1,-19.9 h 0.2 l 8.1,19.9 0.6,1.4 0.5,1.2 v 0 l 4.8,11.7 h 1.4 z"
   id="path202"
   style="fill:#ffffff;fill-opacity:1" />
	</g>
</g>
</svg>
